<?xml version="1.0" standalone="no"?>
<!DOCTYPE svg PUBLIC "-//W3C//DTD SVG 20010904//EN"
 "http://www.w3.org/TR/2001/REC-SVG-20010904/DTD/svg10.dtd">
<svg version="1.0" xmlns="http://www.w3.org/2000/svg"
 width="16.000000pt" height="16.000000pt" viewBox="0 0 16.000000 16.000000"
 preserveAspectRatio="xMidYMid meet">
<metadata>
Created by potrace 1.11, written by Peter Selinger 2001-2013
</metadata>
<g transform="translate(0.000000,16.000000) scale(0.001250,-0.001250)"
fill="#000000" stroke="none">
<path d="M2649 10166 c-2 -2 -43 -6 -90 -10 -47 -4 -95 -8 -105 -10 -10 -2
-39 -7 -64 -11 -25 -4 -101 -20 -170 -36 -608 -143 -1134 -503 -1508 -1032
-34 -48 -62 -89 -62 -91 0 -2 -24 -43 -53 -92 -137 -230 -251 -539 -297 -804
-6 -36 -13 -76 -15 -90 -3 -14 -7 -50 -10 -80 -3 -30 -8 -71 -10 -90 -2 -19
-7 -78 -10 -130 -3 -52 -7 -117 -10 -145 -2 -27 -7 -95 -10 -150 -3 -55 -8
-125 -10 -155 -3 -30 -7 -91 -10 -135 -7 -126 -15 -255 -20 -315 -2 -30 -6
-100 -10 -155 -3 -55 -8 -131 -10 -170 -9 -132 -14 -220 -20 -310 -3 -49 -7
-117 -10 -150 -2 -33 -7 -105 -10 -160 -3 -55 -7 -129 -10 -165 -4 -63 -10
-157 -20 -310 -2 -41 -7 -111 -10 -155 -5 -91 -13 -224 -20 -335 -7 -116 -15
-248 -20 -320 -3 -36 -8 -110 -11 -165 -3 -55 -7 -125 -9 -155 -2 -30 -7 -111
-11 -180 -4 -69 -8 -145 -10 -170 -13 -177 -11 -363 6 -442 31 -148 75 -254
155 -372 154 -228 368 -373 650 -437 89 -21 513 -17 632 5 10 2 43 7 74 10 31
4 67 9 80 11 13 3 39 7 59 10 20 3 47 8 60 10 14 3 48 10 75 15 489 97 1044
369 1445 710 147 126 355 333 452 451 18 23 41 51 52 62 10 12 37 47 60 77 22
30 43 57 46 60 6 6 78 103 100 136 127 188 227 348 253 404 4 8 23 42 42 75
122 211 330 686 420 963 l17 52 1708 0 1707 0 28 -82 c15 -46 47 -133 71 -195
24 -61 44 -114 44 -117 0 -3 11 -29 24 -58 13 -29 38 -87 56 -128 172 -396
441 -847 680 -1141 116 -143 162 -195 255 -289 240 -246 404 -379 695 -566
100 -64 363 -197 495 -249 173 -69 405 -138 570 -170 65 -13 253 -44 300 -49
173 -21 537 -29 620 -13 68 13 158 38 195 54 71 31 165 76 170 82 3 3 30 23
61 44 124 83 268 256 334 402 87 192 104 339 81 685 -7 92 -15 230 -21 335 -3
50 -7 117 -9 150 -3 33 -8 105 -11 160 -3 55 -7 129 -10 165 -2 36 -7 112 -10
170 -3 58 -8 130 -10 160 -2 30 -6 100 -9 155 -6 104 -14 223 -21 335 -3 36
-7 106 -10 155 -3 50 -8 119 -10 155 -3 36 -7 108 -10 160 -6 106 -12 189 -19
300 -3 41 -8 116 -11 165 -11 193 -15 263 -21 333 -3 40 -7 103 -9 140 -2 37
-6 105 -10 152 -10 147 -18 266 -30 455 -3 44 -8 105 -10 135 -3 30 -7 87 -10
125 -36 526 -253 1051 -604 1465 -72 85 -210 223 -291 291 -36 30 -67 56 -70
59 -12 13 -152 112 -215 153 -88 56 -260 147 -345 182 -36 15 -78 33 -95 40
-148 65 -422 133 -645 159 -158 18 -511 14 -635 -8 -16 -3 -50 -8 -74 -11 -23
-3 -46 -7 -50 -9 -3 -2 -22 -7 -41 -10 -224 -37 -484 -136 -790 -302 l-55 -30
-2231 1 -2232 1 -88 51 c-279 158 -607 269 -909 308 -27 4 -61 9 -75 12 -30 6
-435 14 -441 9z m347 -1030 c178 -21 350 -73 509 -153 51 -26 162 -91 180
-105 6 -4 42 -32 81 -62 121 -93 264 -250 347 -382 65 -104 160 -309 172 -375
2 -8 10 -39 19 -69 9 -29 19 -74 22 -99 3 -25 10 -64 15 -86 15 -72 4 -389
-19 -496 -63 -302 -203 -560 -422 -779 -218 -219 -482 -362 -785 -426 -76 -16
-223 -29 -310 -28 -578 8 -1097 329 -1357 839 -74 145 -134 335 -154 490 -11
79 -11 334 -1 410 36 265 151 536 315 745 62 79 235 243 318 302 207 147 489
254 720 274 44 4 80 8 82 9 5 4 215 -3 268 -9z m7204 -5 c247 -38 450 -117
642 -248 96 -65 104 -72 196 -158 254 -238 431 -583 469 -916 15 -127 9 -364
-12 -469 -21 -106 -32 -147 -62 -234 -79 -228 -194 -408 -373 -586 -459 -456
-1153 -573 -1740 -293 -160 76 -290 171 -430 312 -231 234 -369 508 -426 846
-13 81 -13 377 0 460 69 426 310 801 671 1045 96 65 283 157 355 176 8 2 46
13 84 23 37 11 87 23 109 27 23 3 44 7 48 9 3 2 41 7 85 11 43 4 80 7 81 9 8
5 248 -5 303 -14z"/>
<path d="M2439 8759 c-6 -3 -9 -85 -9 -195 1 -104 1 -275 1 -380 l-1 -190
-376 0 c-207 1 -379 -1 -383 -4 -4 -3 -7 -175 -7 -382 0 -373 1 -378 21 -379
11 0 183 -1 383 -1 l362 -1 0 -106 c1 -58 1 -231 1 -383 l-1 -278 385 0 385 0
0 383 0 384 383 0 382 0 0 383 0 384 -382 0 -383 0 0 383 c0 299 -3 383 -12
384 -66 4 -742 3 -749 -2z"/>
<path d="M9404 8629 c-332 -39 -534 -400 -399 -714 42 -98 139 -200 233 -245
26 -12 55 -26 65 -32 10 -5 54 -14 98 -21 185 -26 378 57 491 213 56 77 89
187 89 292 0 111 -21 185 -80 275 -111 170 -293 255 -497 232z"/>
<path d="M10395 7600 c-161 -35 -289 -137 -359 -284 -69 -145 -69 -285 -1
-434 146 -316 571 -392 817 -147 170 169 203 422 83 623 -41 67 -64 94 -125
143 -46 38 -138 84 -187 95 -49 10 -187 13 -228 4z"/>
</g>
</svg>
